<?xml version="1.0" encoding="UTF-8"?>
<!-- Created with Inkscape (http://www.inkscape.org/) -->
<svg width="2042.7" height="710.67" version="1.1" viewBox="0 0 2042.7 710.67" xmlns="http://www.w3.org/2000/svg">
 <path d="m328.86 699.08c-1.4487-1.4487-0.95318-17.741 0.63375-20.836 0.82133-1.6018 3.339-4.8624 5.5949-7.2457 5.0504-5.3358 9.875-5.6518 14.304-0.9369 2.463 2.6217 4.2647 3.306 7.8991 3 2.5896-0.21804 4.6728-0.99643 4.6295-1.7298-0.16608-2.8099-9.0302-7.3337-14.452-7.3755l-5.4695-0.0421 3.741-3.2912c5.267-4.6337 10.214-4.2316 16.926 1.3755 5.8957 4.9257 7.4342 5.4095 10.667 3.3541 3.534-2.2472-3.5311-7.6456-12.667-9.6784l-8-1.7801 5.8667-4.2811c4.4347-3.2361 7.2575-4.2811 11.564-4.2811 4.1844 0 6.7872-0.91679 9.7999-3.4519 5.3853-4.5314 5.1752-5.8815-0.91549-5.8815-3.5608 0-7.1064 1.4065-12.211 4.844-3.9561 2.6642-6.8511 4.0142-6.4333 3 0.41778-1.0142 2.112-5.0407 3.7649-8.9478 3.0146-7.1257 2.669-13.313-0.80809-14.467-2.9019-0.96273-5.9617 7.209-5.9617 15.922 0 8.1851-0.2692 8.9124-5.4976 14.852-3.0237 3.4351-5.7698 5.9734-6.1026 5.6407s0.40036-4.1877 1.629-8.5667c1.7329-6.176 1.8949-8.5953 0.72232-10.786-2.0056-3.7475-4.8669-3.5715-7.5098 0.46201-1.9855 3.0302-1.9802 3.808 0.0676 9.9734 1.2216 3.6778 1.8447 7.8724 1.3848 9.3216-1.011 3.1852-8.1559 9.4185-10.796 9.4185-2.9063 0-2.3738-9.1512 0.88654-15.234 2.4928-4.651 2.5626-5.3188 0.66666-6.3798-2.6718-1.4952-2.6883-5.1015-0.0525-11.429 3.0192-7.2474 10.743-14.59 20.602-19.584 9.614-4.8705 40.127-15.286 47.794-16.315l4.9168-0.65948 14.287 29.091c7.8579 16 13.781 29.597 13.163 30.215-0.6181 0.61811-14.557 5.3379-30.976 10.488-44.719 14.028-53.111 17.705-69.326 30.368-1.9106 1.4921-3.8606 2.3261-4.3333 1.8533zm114.55-45.939c0.5904-0.99509 4.7932-6.6092 9.3394-12.476 11.74-15.15 28.771-41.576 36.535-56.691 3.6472-7.1003 7.4011-13.517 8.342-14.26 1.7343-1.3685 50.232-16.383 52.918-16.383 2.3557 0 1.7152 4.5067-2.5086 17.651-9.6733 30.102-32.233 55.499-62.032 69.833-10.711 5.1522-26.324 10.4-39.167 13.166-3.5968 0.77453-4.2846 0.60588-3.4267-0.84018zm443.59-9.7813c-17.372-4.8966-27.686-14.775-30.371-29.089-1.4244-7.5927 0.48872-8.9393 12.7-8.9393 13.865 0 18.639 1.0816 19.955 4.5209 2.0129 5.2613 6.606 8.1458 12.971 8.1458 4.934 0 6.5526-0.67093 9.2866-3.8494 3.2546-3.7837 3.3038-4.1899 2.8846-23.788-0.54933-25.676 0.74255-24.401-26.068-25.714-10.83-0.53024-20.767-1.528-22.082-2.2172-2.0204-1.0592-2.3298-2.7315-2-10.808 0.54843-13.43-0.51383-13.092 39.724-12.65 35.846 0.39407 36.903 0.61634 40.667 8.5483 1.6142 3.4017 1.9996 10.742 1.9996 38.085v33.871l-3.8758 6.1116c-4.4777 7.0605-12.601 13.029-22.124 16.254-9.5204 3.2247-25.115 3.9277-33.666 1.5175zm117 0.55719c-13.917-2.0679-25.501-9.1802-31.43-19.296-3.2296-5.5109-3.7369-8.1394-4.836-25.056-1.396-21.487-0.95766-58.796 0.71023-60.459 1.4507-1.4458 28.331-1.4432 29.778 3e-3 0.61111 0.61064 1.4562 16.511 1.8779 35.333 0.4218 18.823 1.2445 35.295 1.8283 36.606 1.4561 3.2687 7.7036 6.285 13.005 6.279 5.6166-6e-3 12.793-4.3536 13.681-8.287 0.3774-1.6728 0.8435-17.914 1.0358-36.092 0.2921-27.628 0.6776-33.268 2.3494-34.379 2.3511-1.5623 27.272-1.0876 28.892 0.55032 0.6096 0.61638 1.0533 18.016 0.9861 38.667-0.1374 42.187-0.2839 42.983-9.8067 53.314-6.4734 7.0228-15.136 11.056-27.628 12.862-10.181 1.4719-10.235 1.4718-20.443-0.045zm537.93 0.12675c-15.269-2.3199-27.33-10.878-32.746-23.235-2.8452-6.492-2.9891-8.5316-3.0824-43.69-0.054-20.284 0.4022-37.384 1.0133-38 1.443-1.4545 28.323-1.4634 29.778-0.01 0.6111 0.61056 1.4813 17.111 1.9339 36.667 0.4525 19.556 0.9025 35.715 1 35.909 0.097 0.19411 2.1272 1.5419 4.5105 2.995 7.5173 4.5834 18.864 2.4676 22.422-4.1809 0.9404-1.757 1.7781-15.695 2.2417-37.297l0.7402-34.492 4.4534-0.83546c5.7307-1.0751 23.964-0.1679 25.386 1.263 0.5994 0.60307 1.046 17.993 0.9925 38.645-0.1068 41.25-0.3317 42.629-8.458 51.885-10.195 11.612-30.359 17.388-50.185 14.376zm-913.5-0.90759c-4.1169-0.60784-4.26-0.85647-5.1106-8.8815-1.2135-11.448-0.24097-93.784 1.1239-95.147 1.4492-1.447 28.329-1.4465 29.778 5.2e-4 0.61111 0.61044 1.4159 16.21 1.7884 34.667 0.6953 34.45 1.2511 37.997 6.3842 40.745 1.2835 0.68692 9.5198 1.6776 18.303 2.2015 8.783 0.52391 17.019 1.4968 18.302 2.1618 1.882 0.97537 2.3333 2.9996 2.3333 10.465 0 13.713 0.5007 13.527-37.663 14.016-17.052 0.21856-32.91 0.11597-35.239-0.22798zm85.902-0.0567c-1.2833-0.33537-2.3333-0.95367-2.3333-1.374 0-1.1334 14.866-42.559 26.212-73.04 5.4591-14.667 10.777-27.527 11.817-28.579 2.9394-2.972 31.406-3.7957 34.211-0.99001 3.2167 3.2167 37.093 95.295 37.093 100.82 0 3.1033-3.5697 4.045-15.333 4.045-13.333 0-15.047-0.69717-16.898-6.8752-2.412-8.0505-4.8658-9.0884-21.487-9.0884-7.9517 0-15.635 0.63017-17.074 1.4004s-3.5719 3.7877-4.7394 6.7056-3.2111 5.8877-4.5414 6.5996c-2.3885 1.2783-22.404 1.5573-26.927 0.37534zm61.248-42.451c1.1276-0.34281 0.61367-3.6324-1.7903-11.46-5.1964-16.921-5.7266-18.082-7.2114-15.791-2.121 3.2721-9.232 26.899-8.4679 28.136 0.6326 1.0236 13.304 0.38204 17.47-0.88444zm336.2 42.472c-3.0064-0.79602-6.5966-10.237-21.46-56.436-15.632-48.588-15.356-47.412-11.385-48.475 3.9244-1.0512 22.144-1.0693 26.037-0.0259 3.1935 0.85603 6.5887 10.316 17.258 48.084 2.7318 9.6705 5.4301 17.296 5.9964 16.946s2.28-4.9622 3.8082-10.249c8.0416-27.821 16.414-52.471 18.322-53.946 2.236-1.728 23.54-2.3913 27.538-0.85735 1.16 0.44512 2.109 2.1762 2.109 3.8469 0 1.6707-5.6656 19.78-12.59 40.243-19.409 57.356-20.46 60.046-23.82 60.947-3.3032 0.88577-28.404 0.82464-31.812-0.0775zm88.653-4e-3c-4.1227-0.57048-4.2587-0.80588-5.1106-8.8422-1.2153-11.465-0.2399-93.786 1.1274-95.147 0.613-0.61015 16.513-1.1044 35.333-1.0982 43.327 0.0141 44.152 0.28913 44.2 14.734 0.034 10.085-0.9423 10.519-24.872 11.055-11.61 0.26003-21.86 1.0848-22.776 1.8329-0.9167 0.74807-1.6667 3.0132-1.6667 5.0336 0 2.0204 0.75 4.2906 1.6667 5.0449 0.9166 0.7543 10.468 1.5778 21.224 1.8299 10.757 0.25216 20.057 0.95848 20.667 1.5696 1.9695 1.9733 1.323 19.521-0.7668 20.812-1.0317 0.63762-10.032 1.5407-20 2.0068s-19.024 1.3331-20.124 1.9265c-2.4535 1.3237-3.3875 9.0016-1.3881 11.411 1.0715 1.291 7.508 1.8986 24.161 2.2804 18.095 0.41493 22.967 0.91929 24.018 2.4864 1.5212 2.2692 1.0363 20.583-0.5881 22.209-1.1291 1.1308-67.64 1.8878-75.105 0.85479zm96.666 0.0624c-1.6455-0.4799-2.4666-2.8309-3.1106-8.9064-1.1929-11.254-0.2519-93.771 1.0845-95.105 1.4014-1.3991 18.595-2.3556 22.904-1.2742 2.4529 0.61564 6.8589 6.0906 16.488 20.489 13.306 19.895 16.819 24.13 18.568 22.384 0.5323-0.53103 1.2678-9.939 1.6344-20.907 0.5266-15.75 1.087-20.207 2.6667-21.204 2.6006-1.6422 24.068-1.6415 26.667 8.7e-4 2.9674 1.8751 3.0071 99.73 0.042 103.31-1.6568 1.9994-3.5596 2.2703-12.366 1.7605-13.05-0.75544-13.671-1.3046-32.039-28.317l-13.638-20.056-0.6667 22.893c-0.3667 12.591-1.1659 23.391-1.7761 24-1.2176 1.2152-22.874 1.9804-26.46 0.93479zm136.07 0.0113c-3.1669-0.93104-3.7984-7.1805-3.8232-37.839-0.012-15.033-0.6456-29.579-1.4078-32.323-1.566-5.639-2.2211-5.8999-16.98-6.761-5.3429-0.31174-10.143-0.99538-10.667-1.5192-1.3364-1.3364-1.1944-24.266 0.1587-25.619 1.4517-1.4517 89.659-1.4517 91.111 0 1.3531 1.3531 1.4951 24.283 0.1587 25.619-0.5238 0.52382-5.3238 1.2075-10.667 1.5192-12.989 0.75785-15.23 1.3116-16.489 4.0724-0.5879 1.2897-1.404 17.745-1.8137 36.568-0.4097 18.823-1.2438 34.723-1.8536 35.333-1.203 1.204-24.184 1.9902-27.728 0.94849zm189.26-0.0746c-1.5865-0.41875-2.4999-2.6283-3.1056-7.512-1.212-9.7736-0.2133-95.134 1.1288-96.476 1.7338-1.7343 37.951-2.1752 50.689-0.61704 14.575 1.7828 23.366 5.5789 30.273 13.073 8.7495 9.4921 9.6641 12.859 10.319 37.985 0.5576 21.396 0.4581 22.479-2.6967 29.333-6.3016 13.691-17.991 21.438-35.842 23.756-9.7654 1.2676-46.444 1.5989-50.765 0.45849zm50.914-28.819c4.6211-2.3315 6.5046-8.8956 6.584-22.946 0.1237-21.893-2.6531-26-17.58-26-8.5089 0-9.1501 0.21148-10.37 3.4201-0.7152 1.8811-1.3004 11.742-1.3004 21.913 0 10.171 0.5852 20.032 1.3004 21.913 1.2064 3.1731 1.9046 3.4187 9.6666 3.4005 4.6015-0.0108 9.8664-0.77645 11.7-1.7014zm-1288.7-27.525c-14.022-3.4099-26.304-13.11-32.631-25.771-3.3075-6.6189-4.0356-9.7159-4.0356-17.166 0-10.802 0.46859-11.262 16.667-16.352 30.708-9.6493 113.74-34.263 124.39-36.877 11.904-2.9195 12.596-2.946 23.07-0.88228 23.504 4.6306 37.529 19.775 40.526 43.762 0.71195 5.6983 0.47196 7.8774-1.0334 9.3827-1.9398 1.9398-111.08 35.453-136.26 41.839-12.906 3.2738-22.95 3.9488-30.703 2.0634zm77.679-26.22c6.3725-3.7346 13.133-13.064 14.414-19.891 1.754-9.3494-5.1062-21.997-14.592-26.902-5.2363-2.7078-16.398-2.7315-21.531-0.0457-17.001 8.8957-20.421 28.98-7.1889 42.212 5.8941 5.894 14.131 9.6691 19.129 8.7672 2.1497-0.38796 6.5462-2.2512 9.7701-4.1405zm-21.826-12.375c0.82917-6.2506 0.67289-6.6739-3.9682-10.749-2.6573-2.3331-4.5427-4.5307-4.1899-4.8835 0.35282-0.35281 2.9658-0.99908 5.8067-1.4362 6.6309-1.0202 7.6861-1.9228 9.8256-8.4055 0.97155-2.9438 2.2239-5.3524 2.783-5.3524 0.55909 0 1.7412 2.25 2.627 5 2.3468 7.2858 3.6155 8.3333 10.093 8.3333 6.9048 0 7.3403 1.4144 1.6772 5.447-4.0028 2.8503-4.128 3.2304-3.3217 10.091 0.90124 7.6681 0.5736 8.04-4.5188 5.1289-4.5656-2.6099-8.0592-2.4158-12 0.66667-4.995 3.9072-5.7604 3.2965-4.8137-3.8402zm-92.971-29.826c1.5423-8.2005 7.4382-25.68 11.131-33 10.238-20.294 30.491-40.535 50.654-50.624 14.672-7.341 47.596-16.389 46.177-12.69-0.36535 0.95209-4.8085 7.337-9.8736 14.189-12.397 16.77-24.377 35.839-33.87 53.913-4.3218 8.2284-8.5873 15.559-9.4788 16.291-2.0326 1.6685-49.629 16.253-53.041 16.253-2.1133 0-2.3832-0.68902-1.6978-4.3333zm362.51-15.306c-6.0245-1.5303-12.722-8.7048-12.722-13.628 0-2.424 6.1458-1.5184 8.6771 1.2786 3.7898 4.1877 11.511 6.0251 16.022 3.813 5.2895-2.5934 6.8262-5.5453 4.9876-9.5807-1.153-2.5306-3.9987-4.128-12.247-6.8749-14.96-4.9822-19.694-11.393-15.618-21.15 3.8934-9.3182 17.529-13.182 28.368-8.0388 4.8509 2.3019 9.1614 8.7779 7.9478 11.941-1.1111 2.8955-3.9635 2.257-9.4716-2.1203-6.03-4.792-12.676-5.3237-16.667-1.3333-5.5036 5.5036-1.6943 10.35 10.883 13.847 5.6618 1.5741 9.5939 3.6964 12.813 6.9158 4.1772 4.1772 4.5713 5.1929 3.9145 10.09-1.4602 10.886-14.382 18.018-26.889 14.841zm163.94 0.11671c-13.378-3.1456-15.257-6.5141-16.838-30.184-1.4703-22.019-1.0713-24.96 3.387-24.96 4.2813 0 4.7827 1.9301 4.7914 18.442 9e-3 17.71 1.492 23.552 6.6551 26.222 8.001 4.1375 16.384 0.98264 18.601-7 0.76339-2.7488 1.4005-11.598 1.4158-19.665 0.0297-15.615 0.82456-18.551 4.8134-17.775 2.3287 0.45295 2.5069 2.0021 2.5069 21.798 0 19.214-0.26234 21.667-2.6667 24.933-4.2923 5.8309-15.49 9.8758-22.667 8.1882zm95.572-1.3225c-15.704-5.7434-21.166-32.001-9.5799-46.057 10.074-12.222 28.742-12.119 39.121 0.21582 4.1996 4.991 5.3481 10.525 4.6711 22.507-0.3925 6.947-1.302 10.284-3.7938 13.92-6.458 9.4248-19.42 13.436-30.418 9.4135zm16.398-8.7172c10.38-4.7293 12.838-25.084 4.0863-33.836-6.7995-6.7995-19.674-5.0756-23.958 3.208-6.2398 12.066-2.0015 28.819 7.9016 31.231 4.8033 1.1702 8.485 0.9846 11.97-0.60329zm124.16 8.9958c-2.86-1.0579-5.7319-2.7132-6.3821-3.6785-5.3576-7.9544-5.6804-9.6346-5.7159-29.755l-0.035-20 3.6202-0.41741c4.5291-0.52221 4.7574 0.41452 5.4624 22.417 0.2937 9.1667 0.9533 17.635 1.4658 18.819 2.4342 5.6242 13.465 6.7615 19.044 1.9635 3.7197-3.1989 3.7448-3.3294 4.4076-23l0.6667-19.783h8v20c0 17.714-0.3102 20.528-2.7138 24.619-5.1092 8.6967-17.513 12.626-27.82 8.814zm132.72-0.0935c-7.4747-2.3283-11.548-6.2344-14.467-13.874-5.0696-13.266-1.4431-29.476 8.2482-36.868 10.299-7.8554 27.456-5.2308 33.894 5.1849 5.9288 9.5931 0.8546 12.254-8.0413 4.2174-4.4-3.9752-6.1033-4.6604-11.495-4.6243-9.1957 0.0616-13.902 4.7531-15.647 15.597-1.2107 7.5245 1.0933 13.969 6.7789 18.961 6.4359 5.6508 11.929 5.4792 19.206-0.60002 6.212-5.19 13.946-6.642 12.428-2.3333-4.1322 11.73-18.251 18.281-30.903 14.34zm-618.02-2.3401c-1.0528-3.9284-1.0797-46.825-0.0311-49.558 0.44513-1.16 2.1809-2.109 3.8574-2.109 1.6764 0 3.4122 0.94908 3.8574 2.109 1.0486 2.7326 1.0217 45.629-0.0311 49.558-0.53393 1.9923-1.8191 3-3.8263 3s-3.2924-1.0077-3.8263-3zm20 0c-1.0528-3.9284-1.0797-46.825-0.0311-49.558 1.2572-3.2762 6.3402-2.4903 10.073 1.5576 1.86 2.0167 7.1378 9.2167 11.729 16 7.1026 10.495 10.007 13.693 10.897 12 0.0965-0.18333 0.54648-7.2333 1-15.667 0.79992-14.875 0.9198-15.347 4.0071-15.783 1.7504-0.24749 3.6912 0.35251 4.3129 1.3333 1.2812 2.0213 1.6058 47.766 0.36189 51.008-0.44513 1.16-2.1947 2.109-3.888 2.109-3.3294 0-6.9069-4.0206-16.609-18.667-3.1578-4.7667-6.9875-10.046-8.5105-11.731-2.5616-2.835-2.8401-2.885-3.7156-0.66667-0.52053 1.3189-0.98859 7.899-1.0401 14.622-0.0515 6.7234-0.4579 13.173-0.90303 14.333-1.2594 3.282-6.7355 2.647-7.6836-0.89095zm113.3 0.89095c-0.44512-1.16-0.80932-10.645-0.80932-21.078 0-13.117-0.51416-19.646-1.6667-21.162-1.0062-1.3236-4.0442-2.3492-7.6667-2.5882-5.4055-0.35667-6-0.72615-6-3.7292v-3.3333h20.648c19.15 0 20.683 0.18196 21.131 2.5069 0.64549 3.3518-1.9521 4.7814-8.7327 4.806-4.178 0.0152-5.9739 0.68206-7 2.5994-0.76268 1.4251-1.3802 10.921-1.3802 21.224 0 10.255-0.3642 19.594-0.80932 20.754-0.44513 1.16-2.1809 2.109-3.8574 2.109s-3.4122-0.94907-3.8574-2.109zm33.364-0.89095c-1.0528-3.9284-1.0797-46.825-0.0311-49.558 0.44512-1.16 2.1809-2.109 3.8574-2.109 1.6764 0 3.4122 0.94908 3.8573 2.109 1.0486 2.7326 1.0217 45.629-0.0311 49.558-0.53392 1.9923-1.8191 3-3.8263 3-2.0072 0-3.2924-1.0077-3.8263-3zm33.302 0.89095c-0.44512-1.16-0.80932-10.645-0.80932-21.078 0-13.117-0.51416-19.646-1.6667-21.162-1.0062-1.3236-4.0442-2.3492-7.6667-2.5882-5.4055-0.35667-6-0.72615-6-3.7292v-3.3333h20.667c19.697 0 20.667 0.12366 20.667 2.6358 0 2.1289-1.282 2.845-6.6667 3.7241-3.6667 0.59859-7.4167 2.0772-8.3333 3.2857-1.1523 1.5192-1.6667 8.0521-1.6667 21.167 0 10.433-0.3642 19.919-0.80932 21.078-0.44513 1.16-2.1809 2.109-3.8574 2.109s-3.4122-0.94907-3.8574-2.109zm100.95 0.44238c-0.58435-0.91666-1.2834-10.796-1.5534-21.954-0.32044-13.241-1.0298-20.735-2.0424-21.575-0.85328-0.70816-4.2396-1.4788-7.5253-1.7126-5.3699-0.38203-5.9738-0.76201-5.9738-3.7583v-3.3333h20.648c19.15 0 20.683 0.18196 21.131 2.5069 0.6455 3.3518-1.9521 4.7814-8.7327 4.806-4.178 0.0152-5.9739 0.68206-7 2.5994-0.76269 1.4251-1.3802 10.921-1.3802 21.224 0 10.255-0.36419 19.594-0.80932 20.754-0.96481 2.5142-5.2624 2.7954-6.7624 0.44238zm107.08-1.3333c-1.0463-3.9043-1.0463-44.762 0-48.667 0.9984-3.7253 7.0909-4.1264 10.128-0.66666 1.1266 1.2833 5.218 9.6833 9.0921 18.667 3.8741 8.9833 7.4698 16.333 7.9905 16.333 0.5208 0 4.0714-7.05 7.8904-15.667s7.8083-17.017 8.8651-18.667c2.2868-3.5702 9.1307-4.1574 10.384-0.89095 1.0486 2.7326 1.0217 45.629-0.031 49.558-0.9482 3.538-6.4242 4.173-7.6837 0.89095-0.4451-1.16-0.8093-8.36-0.8093-16s-0.5236-13.891-1.1636-13.891-4.0413 6.6577-7.5585 14.795-7.2159 15.11-8.2194 15.495c-3.2046 1.2297-6.5057-3.3253-12.38-17.082-3.8979-9.1285-6.0858-12.848-6.8493-11.644-0.617 0.97323-1.131 7.2704-1.1422 13.994-0.011 6.7234-0.3846 13.173-0.8297 14.333-1.2595 3.282-6.7355 2.647-7.6837-0.89095zm120 0c-1.0527-3.9284-1.0796-46.825-0.031-49.558 0.4681-1.22 2.3644-2.109 4.4984-2.109 3.2106 0 5.1233 2.0752 14.747 16 9.4936 13.736 12.579 17.329 13.454 15.667 0.096-0.18333 0.5465-7.2333 1-15.667 0.7999-14.875 0.9198-15.347 4.0071-15.783 1.7504-0.24749 3.6912 0.35251 4.3129 1.3333 1.2813 2.0213 1.6058 47.766 0.3619 51.008-0.4451 1.16-2.1947 2.109-3.8879 2.109-3.5108 0-6.5645-3.6203-19.379-22.975-4.7247-7.136-9.0404-12.986-9.5904-13-0.55-0.014-1 7.1254-1 15.865s-0.3642 16.84-0.8093 18c-1.2595 3.282-6.7355 2.647-7.6837-0.89095zm54.667 0c-1.0717-3.9992-0.8798-37.422 0.2584-45 0.7501-4.9941 1.4348-6.0754 4.0838-6.45 1.7504-0.24749 3.6912 0.35251 4.3129 1.3333 1.6386 2.5851 1.4531 47.432-0.2091 50.538-1.9532 3.6497-7.4282 3.3768-8.446-0.42099zm76 0c-1.0528-3.9284-1.0797-46.825-0.031-49.558 0.4452-1.16 2.181-2.109 3.8574-2.109s3.4122 0.94908 3.8573 2.109c1.0486 2.7326 1.0217 45.629-0.031 49.558-0.534 1.9923-1.8192 3-3.8263 3-2.0072 0-3.2924-1.0077-3.8263-3zm19.78-1.4463c-1.5904-8.4777-0.14-45.592 1.8766-48.018 1.459-1.7555 4.2972-2.1979 14-2.1822 7.0237 0.0113 13.58 0.72398 15.503 1.6852 4.1152 2.0562 7.9952 9.497 7.9979 15.338 0.01 10.908-6.5277 17.5-17.598 17.757-11.488 0.26631-12.32 0.94048-13.066 10.587-0.6321 8.1659-0.8532 8.6346-4.2577 9.0277-3.1551 0.36427-3.696-0.14485-4.4557-4.1943zm27.083-25.629c3.5734-2.5029 3.9871-9.2028 0.8454-13.688-1.8736-2.6748-3.0664-2.9784-10.333-2.63l-8.2153 0.39389-0.409 7.1744c-0.225 3.9459-0.094 7.9959 0.2914 9 0.9981 2.601 14.011 2.4184 17.821-0.25001zm13.242 29.152c-0.5843-0.98214 16.152-48.791 18.292-52.254 0.5061-0.81903 3.2262-1.4892 6.0445-1.4892 4.5763 0 5.2889 0.46335 6.6646 4.3333 0.8472 2.3833 4.7626 13.633 8.7008 25 3.9382 11.367 7.5848 21.761 8.1036 23.098 0.8138 2.0977 0.335 2.3721-3.4904 2-3.6377-0.35384-4.9287-1.3887-7.1918-5.7646l-2.7581-5.3333h-21.287l-2.7584 5.3333c-1.9851 3.838-3.7287 5.4482-6.219 5.7431-1.9033 0.22536-3.7487-0.0746-4.1008-0.66667zm30.935-21.255c0.9434-0.8114-5.8831-19.822-7.1179-19.822-1.1088 0-4.6174 9.0544-6.5532 16.911-0.7783 3.1586-0.4515 3.6389 2.7882 4.099 3.4926 0.49609 9.7142-0.18345 10.883-1.1887zm27.989 19.676c-3.1038-2.5114-3.2165-3.256-3.6548-24.146-0.5284-25.179-0.089-28.018 4.335-28.018 1.7409 0 3.5295 0.94908 3.9746 2.109 0.4452 1.16 0.8094 10.345 0.8094 20.412 0 23.12 0.072 23.243 14.223 24.146 10.074 0.64302 10.444 0.78489 10.444 4 0 3.3106-0.092 3.3359-13.464 3.7111-11.693 0.32804-13.885 0.0368-16.667-2.2136zm58.751 0.44485c-2.7529-3.32-2.8606-47.11-0.124-50.406 1.4598-1.7578 4.3193-2.2035 14.136-2.2035 14.916 0 19.562 2.3834 24.691 12.669 6.8181 13.67 2.7917 30.922-8.9038 38.15-6.8173 4.2133-26.795 5.4134-29.8 1.79zm23.484-8.6598c11.069-5.3582 12.795-22.587 3.2228-32.16-3.1275-3.1275-4.9249-3.7893-10.292-3.7893-3.5764 0-7.2225 0.72-8.1025 1.6-2.2119 2.2119-2.2119 33.255 0 35.467 2.406 2.406 8.8776 1.9294 15.172-1.1175zm31.096 8.213c-3.0629-2.4789-3.221-3.4114-3.6679-21.635-0.5261-21.453 0.8166-28.732 5.5167-29.905 1.6227-0.40484 8.9503-0.56066 16.284-0.34628 12.314 0.36001 13.333 0.59356 13.333 3.0565 0 2.386-1.3333 2.807-12.667 4l-12.667 1.3333v13.333l8.6666 0.34104c12.753 0.50183 14.917 1.2083 14.42 4.7061-0.3807 2.6773-1.3532 3.0151-10.42 3.6195-5.5 0.36667-10.75 1.1521-11.667 1.7454-2.1963 1.4214-2.1469 10.863 0.066 12.7 0.9532 0.7911 6.8032 1.6146 13 1.8299 11.025 0.38315 11.267 0.46322 11.267 3.7249 0 3.3222-0.047 3.3346-14.132 3.7097-12.35 0.32892-14.536 0.0496-17.333-2.2142zm-1024.4-23.075c-3.4743-5.3047-21.883-44.541-23.624-50.353-1.492-4.98-1.4016-5.7768 0.90664-7.9868 1.4102-1.3502 15.998-6.7653 32.417-12.034 34.609-11.105 40.482-13.532 52.903-21.865 5.4076-3.6277 9.6423-5.6501 10.35-4.9428 0.65844 0.65844 0.96844 5.7265 0.68889 11.262-0.47196 9.3461-0.83488 10.402-5.0798 14.782-2.5143 2.5941-5.3076 4.7166-6.2074 4.7166s-3.4359-1.8-5.6359-4c-3.9987-3.9987-7.3664-4.9145-10.578-2.8764-3.0869 1.9589 3.1626 8.0913 9.2355 9.0624 4.3501 0.69562 5.0099 1.1637 3.5701 2.5331-0.97134 0.92388-3.643 2.0717-5.9371 2.5506-3.5866 0.74886-5.0583 0.10295-10.504-4.61-3.6692-3.1756-7.1481-5.168-8.2714-4.737-1.0663 0.40916-2.1896 0.74394-2.4963 0.74394-0.30668 0-0.55761 0.807-0.55761 1.7934 0 3.0896 4.3786 5.8995 12.463 7.9977 4.2879 1.1129 8.1879 2.4189 8.6667 2.9024 0.4788 0.48343-0.92945 2.3222-3.1294 4.0862-3.049 2.4447-5.621 3.2088-10.818 3.2138-5.5736 5e-3 -7.456 0.64447-10.313 3.501-1.9219 1.9219-3.1683 4.0219-2.7698 4.6667 1.5135 2.4489 9.1935 1.0157 15.565-2.9047 3.6443-2.2424 6.849-3.854 7.1216-3.5815s-1.6141 3.7572-4.1926 7.7437c-3.7157 5.7448-4.6091 8.3543-4.3074 12.581 0.45994 6.4437 2.0635 6.6357 6.0474 0.72401 2.0956-3.1097 3-6.418 3-10.974 0-7.0057 3.2123-14.755 7.8581-18.956 3.2237-2.9154 3.3606-2.1653 1.3316 7.2955-1.0948 5.1051-1.0828 7.7518 0.0464 10.23 1.4928 3.2763 1.5782 3.2938 4.2537 0.87252 2.1919-1.9837 2.5514-3.3965 1.8227-7.1646-0.4992-2.5815-0.99461-7.5312-1.1009-10.999-0.20812-6.7891 2.2853-10.569 8.1217-12.312 2.6169-0.78146 2.9963-0.41618 2.9707 2.8607-0.0161 2.0661-1.2378 6.4205-2.7149 9.6765-2.3712 5.227-2.4459 6.0542-0.63738 7.0663 4.9242 2.7557-0.7893 18.709-9.4118 26.279-6.157 5.4059-11.239 7.867-32.54 15.757-24.129 8.9374-25.967 9.2853-28.513 5.3976zm-154.64-130.02c-1.297-1.297-1.0027-19.813 0.37244-23.43 1.3905-3.6573 9.7915-12.971 11.7-12.971 0.69808 0 3.7226 2.1 6.7212 4.6667 3.6812 3.151 6.7905 4.6667 9.5733 4.6667 8.8175 0 2.7344-8.5781-7.1322-10.058-7.6442-1.1463-8.6156-2.5853-3.5229-5.2188 6.14-3.1751 9.324-2.5063 15.598 3.2766 6.3729 5.8743 6.971 6.0876 10.283 3.6661 2.0632-1.5086 2.087-1.9429 0.2507-4.5646-2.0853-2.9772-6.8126-4.8908-15.837-6.4109l-5.1493-0.86738 2.9778-3.1698c4.2456-4.5192 10.847-7.32 17.253-7.32 4.2554 0 6.2762-0.8064 8.7735-3.5011 3.9253-4.2355 3.229-5.8323-2.5432-5.8323-2.9903 0-6.5749 1.6621-11.485 5.3254-3.9257 2.929-7.369 5.094-7.6519 4.8112-0.28283-0.28282 1.0207-4.1612 2.8968-8.6186 3.5652-8.4705 4.2451-14.139 2.1012-17.518-1.0846-1.7094-1.7113-1.5573-4.3129 1.0472-2.6677 2.6705-3.0108 4.2298-2.7759 12.615 0.2944 10.509-1.28 14.353-8.8413 21.587-4.6503 4.4489-4.8413 3.9778-2.079-5.128 2.4736-8.1539 2.4834-10.275 0.0625-13.533-1.8948-2.5501-1.9656-2.5462-4.8125 0.26138-2.751 2.713-2.8139 3.2972-1.313 12.196 1.7721 10.506 0.95514 13.057-5.3809 16.799-5.5563 3.2822-6.5706 2.7174-6.5706-3.6586 0-4.0028 1.0384-7.3441 3.3333-10.726 4.0214-5.9259 3.9996-5.6416 0.50289-6.556-2.4829-0.64928-2.7148-1.3566-1.8887-5.7602 2.3744-12.657 9.9651-20.788 26.697-28.598 9.9052-4.6234 45.132-17.213 48.164-17.213 1.8296 0 31.232 59.939 31.21 63.624-0.0154 2.5584-1.5908 3.4285-11.684 6.4533-64.499 19.328-75.662 23.753-88.488 35.071-3.3852 2.9872-6.5352 5.0509-7 4.586zm330.49-43.932c-15.057-3.1359-27.296-8.6362-33.891-15.232-7.772-7.772-13.834-23.36-10.852-27.903 1.0639-1.6208 4.8699-2 20.076-2h18.763l4.2859 5.0761c5.1075 6.0492 12.426 8.1814 23.383 6.8124 7.423-0.92745 12.236-4.0648 12.236-7.9762 0-4.7943-2.9316-7.2465-11.698-9.7852-4.9327-1.4284-15.481-4.4613-23.442-6.7396-7.9602-2.2784-16.837-5.3486-19.727-6.8227-16.214-8.2719-24.415-23.914-20.995-40.046 3.6048-17.004 12.979-26.74 32.09-33.329 12.631-4.3548 35.526-4.3621 48.793-0.0156 12.203 3.9982 22.406 11.046 27.96 19.316 4.7046 7.0039 7.5046 15.358 6.2463 18.637-1.0797 2.8136-9.4214 3.8974-25.678 3.3363-12.993-0.4485-13.544-0.59447-17.813-4.7144-4.987-4.8138-10.076-7.0818-15.891-7.0818-5.818 0-11.67 3.4965-12.696 7.5861-1.5006 5.9791 3.4994 8.7916 25.046 14.088 27.274 6.7044 33.748 9.4293 41.993 17.675 8.2718 8.2718 10.376 14.47 9.5022 27.984-0.73742 11.402-3.9327 18.091-12.346 25.846-11.582 10.676-29.144 16.212-50.679 15.976-6.6-0.0723-13.2-0.38143-14.667-0.68688zm868.67-1.1538c-21.382-5.9085-35.266-17.536-41.528-34.775-2.4999-6.8833-2.8769-10.891-2.9992-31.873-0.1525-26.171 1.0721-34.094 6.9767-45.141 9.8669-18.46 35.896-29.983 64.217-28.429 15.726 0.86311 27.846 4.5555 38.664 11.779 16.649 11.118 22.422 24.108 23.607 53.124 0.441 10.793 0.1231 22.004-0.7941 28-3.5991 23.532-17.043 38.541-41.477 46.305-9.0788 2.8846-37.646 3.5031-46.667 1.0103zm33.854-35.049c8.3281-4.8782 9.4363-8.0077 9.9236-28.024 0.613-25.183-0.2462-30.796-5.6743-37.076-4.2567-4.9243-4.7337-5.1109-14.254-5.577-8.6011-0.4211-10.441-0.0842-14.516 2.6581-8.1773 5.5027-9.3289 9.6325-9.3313 33.463-0 22.189 1.0153 27.295 6.3923 32.084 7.0045 6.2379 19.162 7.3323 27.46 2.4719zm-1115.7 32.785c0.54927-0.88875 6.2541-9.0118 12.677-18.051 14.588-20.53 29.907-45.473 37.158-60.504 3.928-8.1423 6.5883-11.99 9.1032-13.168 3.0098-1.4092 49.414-17.328 50.512-17.328 1.2673 0-0.0349 10.201-2.3864 18.693-12.613 45.554-45.748 76.654-95.119 89.277-12.315 3.1487-13.277 3.2358-11.945 1.0806zm302.86 0.87553c-0.4448-0.4448 0.24497-4.5102 1.5328-9.0342 4.0689-14.293 44.324-122.79 46.464-125.23 1.7866-2.0373 4.5994-2.3214 22.173-2.2396 11.07 0.0515 21.25 0.53495 22.622 1.0742 2.9071 1.1424 1.516-2.3181 28.953 72.026 11.744 31.823 21.173 59.123 20.953 60.667-0.38362 2.6868-1.2298 2.8216-19.912 3.1741l-19.512 0.36809-3.3266-8.3681c-2.0707-5.2088-4.5203-9.0182-6.4884-10.09-3.3895-1.8459-41.093-1.6466-45.313 0.23944-1.1834 0.52889-3.6077 4.6788-5.3872 9.222l-3.2355 8.2604-19.356 0.3675c-10.646 0.20213-19.72 4e-3 -20.165-0.44121zm83.844-54.926c-4.2268-15.606-12.268-38.813-13.145-37.936-1.5675 1.5675-12.851 38.039-12.149 39.269 0.31396 0.55 6.2759 1 13.249 1 11.426 0 12.615-0.2304 12.046-2.3333zm83.531 54c-1.4394-2.2241-2.1535-113.78-0.8044-125.67l1.059-9.3333 19.229-0.37134c12.451-0.24045 19.736 0.13521 20.667 1.0658 0.93804 0.93746 1.6961 16.596 2.1804 45.038 0.5666 33.274 1.1807 44.493 2.5929 47.368 3.3191 6.7561 7.4247 7.7823 34.316 8.5771 24.451 0.72272 24.574 0.74146 25.791 3.9447 1.6214 4.2646 1.5686 23.297-0.077 27.625l-1.3004 3.4201h-51.288c-39.566 0-51.534-0.38091-52.366-1.6667zm144 0c-0.5933-0.91667-1.3787-21.573-1.7454-45.904-0.836-55.471 0.9311-51.362-22.651-52.675-9.0125-0.50207-17.042-1.581-17.861-2.4-0.9222-0.92222-1.4879-7.3103-1.4879-16.803 0-12.163 0.4117-15.576 2-16.58 1.184-0.74846 26.48-1.2643 62-1.2643s60.816 0.51582 62 1.2643c1.5957 1.0087 2 4.4859 2 17.202 0 8.7656-0.3702 16.308-0.8227 16.76-0.4524 0.45247-8.4899 1.2525-17.861 1.7778-24.361 1.3656-22.478-2.8915-23.316 52.718-0.3667 24.33-1.1521 44.987-1.7453 45.904-0.7806 1.2061-6.3781 1.6667-20.255 1.6667s-19.474-0.46059-20.255-1.6667zm107.09-2.4662c-1.1212-5.6062-0.8896-118.89 0.2587-126.53l0.9012-6h40l0.8682 7.3333c1.1299 9.5448 1.1299 111.79 0 121.33l-0.8682 7.3333-40.32 0.73425zm71.572 2.4662c-1.4431-2.2298-2.1613-118.34-0.7897-127.67l1.0779-7.3333 19.212-0.37134c12.437-0.24039 19.719 0.13535 20.65 1.0656 0.9355 0.9348 1.7061 16.44 2.2053 44.371 0.5385 30.137 1.2771 44.238 2.4778 47.308 2.8985 7.4108 6.7977 8.4542 35.22 9.4248l25.42 0.86804 0.9244 3.3333c1.465 5.2828 1.33 25.248-0.19 28.088-1.3283 2.482-3.3326 2.579-53.255 2.579-40.035 0-52.121-0.38037-52.953-1.6667zm126.67 0c-1.4394-2.2241-2.1535-113.78-0.8044-125.67l1.0591-9.3333 20.333-0.36806c11.183-0.20243 20.433-0.20243 20.554 0s0.6095 20.168 1.0841 44.368c0.6094 31.066 1.3708 45.286 2.5902 48.374 2.9288 7.4173 6.8968 8.4897 34.423 9.3033 24.451 0.72272 24.573 0.74146 25.791 3.9447 1.6214 4.2646 1.5686 23.297-0.077 27.625l-1.3003 3.4201h-51.288c-39.566 0-51.534-0.38091-52.366-1.6667zm-989.51-75.784c-8.9736-3.5517-21.858-15.895-25.527-24.455-5.88-13.718-8.269-28.478-5.0407-31.146 1.7193-1.4205 52.4-17.666 114.33-36.649 31.84-9.759 36.388-10.826 46-10.794 12.018 0.0409 23.224 3.3922 30.887 9.2372 10.606 8.0898 18.429 24.054 19.982 40.779 0.72987 7.8593 0.53332 9.0118-1.7448 10.231-2.7489 1.4712-44.513 14.649-105.09 33.158-35.498 10.847-38.107 11.445-52.038 11.933-12.562 0.43989-15.685 0.11041-21.766-2.2962zm87.541-25.979c7.6273-5.1365 14.353-14.344 15.692-21.482 1.1505-6.1328-2.7359-17.431-7.8219-22.738-12.556-13.103-33.612-9.5561-41.727 7.0299-2.98 6.0908-3.477 8.5259-2.8392 13.911 1.0283 8.6822 5.0358 16.2 11.203 21.017 11.17 8.7235 15.349 9.0945 25.492 2.2634zm-23.298-8.237c2.7234-9.6724 2.5492-11.169-1.8258-15.682-2.3565-2.4313-3.914-5.0202-3.461-5.7531s3.2797-1.7475 6.2817-2.2547c5.0098-0.8464 5.6859-1.4701 8.2301-7.5921l2.7719-6.6699 3.0723 6.0452c3.0608 6.0228 3.8967 6.5915 12.12 8.2466 2.3833 0.47968 4.3333 1.3122 4.3333 1.8501s-1.8536 2.7402-4.1192 4.8941c-3.949 3.7543-4.0834 4.2382-3.2526 11.711 0.93438 8.405 1.0752 8.3292-6.1674 3.3194-4.643-3.2116-6.2218-3.0959-12.081 0.88529-5.8125 3.9497-6.7796 4.1135-5.903 1zm-95.739-37.333c4.4241-25.76 15.408-48.058 32.595-66.17 17.741-18.695 35.224-28.745 62.914-36.163 14.035-3.7602 17.672-4.1158 16.72-1.6352-0.35855 0.93436-5.2787 8.2844-10.934 16.333-13.359 19.014-27.207 42.41-35.463 59.912-3.6252 7.6854-7.6758 14.554-9.0013 15.263-3.2818 1.7564-53.49 17.46-55.824 17.46-1.4198 0-1.6606-1.1952-1.0071-5zm282.02-22.832c-1.8665-3.4875-1.8715-43.818-6e-3 -49.169 1.5969-4.581 4.1716-5.6245 13.916-5.6402 14.07-0.02273 21.187 4.4268 23.492 14.688 2.8156 12.531-5.0046 21.456-19.616 22.386-4.6587 0.29664-9.0529 1.2412-9.7648 2.0991-0.71197 0.85787-1.4783 5.1332-1.7029 9.5007-0.31779 6.1785-0.90633 8.0356-2.6518 8.3676-1.2338 0.23471-2.8838-0.77002-3.6667-2.2327zm27.301-30.384c2.6528-3.5008 2.366-7.5527-0.82122-11.605-2.4283-3.0871-3.7188-3.5131-10.641-3.5131-8.9706 0-9.8017 1.116-9.0164 12.107 0.40049 5.6052 0.649 5.9279 5.0877 6.6071 6.3265 0.96796 13.139-0.62372 15.391-3.5962zm33.017 31.484c-6.1536-1.8871-13.203-9.1102-14.917-15.284-0.81197-2.9248-1.4796-8.787-1.4837-13.027-0.0135-14.043 6.3818-23.639 18.006-27.018 11.889-3.4563 23.208 1.8452 29.168 13.662 3.2196 6.3835 2.9178 23.005-0.54079 29.785-5.0524 9.9035-18.917 15.353-30.232 11.884zm18.939-12.349c5.2174-5.2174 7.2038-14.265 4.854-22.108-3.6362-12.137-17.086-16.904-25.351-8.9868-8.2209 7.8749-8.3088 23.588-0.17756 31.719 3.0832 3.0832 4.9513 3.7893 10.025 3.7893 5.2809 0 6.9118-0.67595 10.65-4.4137zm23.368 11.806c-2.217-2.6714-1.3462-46.582 1.0099-50.921 1.2634-2.3268 3.2618-3.0335 10.687-3.7792 11.416-1.1465 18.498 0.66229 23.651 6.0408 3.3538 3.5006 3.9365 5.1611 3.9365 11.217 0 6.0366-0.65874 7.9284-4.3678 12.544l-4.3678 5.4352 4.8016 9.5348c5.0704 10.068 4.8253 12.884-0.99437 11.423-2.0404-0.51212-4.8692-3.7679-8.1571-9.3884-6.2015-10.601-7.5926-11.791-13.161-11.257l-4.4204 0.42431-0.66667 10c-0.59122 8.8684-0.98163 10.045-3.45 10.398-1.5308 0.21873-3.5564-0.53374-4.5012-1.6722zm27.345-30.665c6.4187-6.4187 2.3226-14.448-8.2312-16.136-8.8269-1.4115-11.163 0.66012-11.163 9.9 0 4.252 0.4 8.1309 0.88889 8.6198s4.1162 0.88889 8.0606 0.88889c5.8366 0 7.781-0.60925 10.444-3.2727zm34.911 31.8c-1.0333-1.0332 15.321-48.739 18.231-53.181 2.8684-4.3777 8.0309-4.423 10.867-0.09531 2.3427 3.5755 17.527 45.694 18.186 50.445 0.33025 2.3803-0.32324 3.0547-3.2902 3.3955-3.3166 0.38102-3.9897-0.26615-6.4603-6.211-2.9754-7.1596-4.7011-8.1654-14.062-8.1961-7.8484-0.0257-9.5208 0.91696-12.678 7.1462-1.5339 3.0262-3.4584 5.943-4.2765 6.4818-1.8144 1.1948-5.4171 1.3131-6.5162 0.214zm30.254-23.02c1.0257-1.6596-5.231-19.581-6.6826-19.141-1.0933 0.33098-7.2098 16.642-7.2098 19.227 0 1.4544 12.99 1.3744 13.892-0.0857zm26.09 21.127c-1.7669-3.3016-1.7108-48.738 0.0644-52.055 1.683-3.1447 5.6453-3.346 8.1232-0.41268 1.0065 1.1915 5.1438 9.6961 9.194 18.899 4.0502 9.203 7.9502 16.927 8.6667 17.165 0.71643 0.23777 4.3026-6.8612 7.9693-15.776 7.3152-17.785 10.237-22.455 14.05-22.455 4.8706 0 5.6339 4.5002 5.039 29.705-0.50617 21.445-0.82504 24.138-3.051 25.765-4.6197 3.378-6.0359 0.11313-6.0583-13.967-0.0112-7.0602-0.56021-13.69-1.22-14.732-1.2731-2.0114-0.93301-2.6334-8.69 15.895-1.9956 4.7667-4.6654 9.7378-5.933 11.047-2.2117 2.2843-2.3958 2.2798-4.5598-0.11138-1.2403-1.3705-4.5723-7.8416-7.4046-14.38-2.8323-6.5387-5.6797-11.889-6.3276-11.889s-1.3219 3.9-1.4977 8.6667c-0.55919 15.159-1.5333 19.651-4.4252 20.407-1.6863 0.44098-3.0934-0.19221-3.9392-1.7727zm78.406 1.4498c-6.2626-2.0064-11.393-6.5635-14.413-12.802-2.418-4.995-2.8391-7.8197-2.4478-16.422 0.39253-8.6287 1.0941-11.328 4.1408-15.932 4.7227-7.1364 12.113-10.93 21.279-10.924 8.3126 0.0059 13.671 2.8222 19.232 10.108 3.4521 4.5228 3.8618 6.1753 4.242 17.114 0.3985 11.463 0.21295 12.432-3.4868 18.203-2.2733 3.5464-5.8888 7.0362-8.6444 8.3438-5.8519 2.7769-15.096 3.8502-19.901 2.3106zm18.853-12.849c7.3067-8.3219 6.6808-22.979-1.3081-30.631-3.3566-3.2154-5.1926-3.9131-10.023-3.8086-9.5922 0.20745-15.244 7.575-15.244 19.872 0 10.975 4.2176 17.55 12.342 19.24 6.5183 1.3558 9.9213 0.23885 14.233-4.6719zm22.867 12.229c-1.2265-1.4779-1.5436-8.3026-1.2167-26.184 0.43648-23.869 0.48536-24.22 3.7361-26.85 2.9727-2.4052 4.4623-2.5725 15.28-1.7163 6.5926 0.52178 12.91 1.5324 14.04 2.2459 4.7038 2.9721 7.2557 8.2615 7.321 15.174 0.055 5.8758-0.5939 7.7411-4.3025 12.359l-4.3678 5.4384 4.8016 9.5348c5.1386 10.204 4.8336 12.886-1.2907 11.349-2.3364-0.58641-4.4351-2.8618-6.6242-7.1818-5.2316-10.324-7.6363-12.592-13.558-12.79l-5.2596-0.1751-0.66667 10c-0.59123 8.8684-0.98163 10.045-3.45 10.398-1.5308 0.21873-3.5298-0.50182-4.4423-1.6012zm27.286-30.736c6.8691-6.8691 2.7809-14.478-8.6216-16.046-9.1779-1.2623-10.772 0.20698-10.772 9.9265 0 4.188 0.4 8.0145 0.88889 8.5034s4.1162 0.88889 8.0606 0.88889c5.8366 0 7.781-0.60925 10.444-3.2727zm34.648 31.341c-0.9459-1.5304 11.003-37.886 15.799-48.068 2.5574-5.43 3.2691-6 7.4925-6 4.2233 0 4.9351 0.57 7.4925 6 5.4408 11.552 16.832 46.876 15.534 48.173-2.3972 2.3973-8.0151-1.088-9.6272-5.9726-1.8691-5.6634-3.1615-6.2006-14.917-6.2006h-9.2992l-2.6541 6c-1.4598 3.3-3.177 6-3.816 6s-2.0503 0.3409-3.1361 0.75757c-1.0858 0.41666-2.3766 0.10644-2.8684-0.68936zm30.304-22.192c0.9848-0.98481-5.8117-20.543-7.1388-20.543-1.2968 0-7.8333 19.596-6.8609 20.569 1.0106 1.0106 12.985 0.98802 14-0.0264zm-567.23-5.5514c-1.9264-4.2118-8.6663-18.844-14.978-32.517-6.3113-13.673-11.475-25.153-11.475-25.512 0-1.0872 12.681-5.7269 39.333-14.391 29.418-9.5632 38.764-13.549 51.268-21.861 4.9998-3.3238 9.5214-6.0433 10.048-6.0433 0.52663 0 0.74594 4.95 0.48735 11-0.41209 9.6414-0.93764 11.611-4.2552 15.948-5.2001 6.7975-8.6312 7.6896-11.966 3.1113-2.9332-4.0266-7.8583-6.381-10.904-5.2123-4.7867 1.8368 0.80596 8.8589 8.3218 10.449 4.9184 1.0403 5.5215 2.6416 1.7543 4.6578-4.2464 2.2726-6.2946 1.6378-12.754-3.9531-6.1085-5.2869-10.356-6.6607-12.061-3.9013-1.4405 2.3308 4.7743 7.7911 9.9409 8.7342 2.6327 0.48053 6.2295 1.4101 7.9928 2.0657l3.206 1.1921-3.7888 3.9547c-3.2771 3.4206-4.7537 3.9547-10.933 3.9547-5.8745 0-7.747 0.60248-10.534 3.3894-2.7427 2.7427-3.0816 3.7603-1.7761 5.3333 2.5759 3.1037 6.8134 2.2867 14.305-2.7582 3.8402-2.5861 6.9822-4.0748 6.9822-3.3081 0 0.76667-1.8 4.7671-4 8.8898-4.1829 7.8385-4.8641 11.767-2.6222 15.12 1.1293 1.6895 1.8507 1.4191 4.6462-1.741 2.7713-3.1328 3.3093-5.0954 3.3093-12.072 0-6.9041 0.66289-9.3765 3.8696-14.433 5.2386-8.2604 7.4106-9.4961 6.3507-3.613-2.7824 15.443-2.18 19.819 2.4818 18.03 2.0041-0.76904 2.218-2.3154 1.6412-11.861-0.47284-7.8249-0.13483-12.018 1.1772-14.604 2.0226-3.9861 6.4605-6.954 8.5071-5.6892 2.013 1.2441 1.548 8.4028-0.87783 13.515-1.7404 3.6677-1.8757 5.2773-0.66667 7.9309 2.1511 4.7211 1.8522 8.3337-1.2576 15.204-5.4921 12.133-14.785 18.526-43.225 29.734-26.181 10.318-23.46 10.194-27.547 1.2569z"/>
</svg>
